<?xml version="1.0" encoding="utf-8"?>
<!-- Generator: Adobe Illustrator 23.0.3, SVG Export Plug-In . SVG Version: 6.00 Build 0)  -->
<svg version="1.1"
	 id="svg2" xmlns:cc="http://creativecommons.org/ns#" xmlns:dc="http://purl.org/dc/elements/1.1/" xmlns:inkscape="http://www.inkscape.org/namespaces/inkscape" xmlns:rdf="http://www.w3.org/1999/02/22-rdf-syntax-ns#" xmlns:sodipodi="http://sodipodi.sourceforge.net/DTD/sodipodi-0.dtd" xmlns:svg="http://www.w3.org/2000/svg"
	 xmlns="http://www.w3.org/2000/svg" xmlns:xlink="http://www.w3.org/1999/xlink" x="0px" y="0px" viewBox="0 0 548.4 548.4"
	 style="enable-background:new 0 0 548.4 548.4;" xml:space="preserve">
<style type="text/css">
	.st0{fill:#E60013;}
</style>
<sodipodi:namedview  bordercolor="#666666" borderopacity="1.0" fit-margin-bottom="0" fit-margin-left="0" fit-margin-right="0" fit-margin-top="0" id="base" inkscape:current-layer="layer1" inkscape:cx="382.96397" inkscape:cy="8.4295474" inkscape:document-units="px" inkscape:pageopacity="0.0" inkscape:pageshadow="2" inkscape:window-height="752" inkscape:window-maximized="0" inkscape:window-width="1280" inkscape:window-x="0" inkscape:window-y="0" inkscape:zoom="0.85459154" pagecolor="#ffffff" showgrid="false">
	</sodipodi:namedview>
<g id="layer1" transform="translate(-119.18487,-150.09124)" inkscape:groupmode="layer" inkscape:label="Layer 1">
	<g id="g6641" transform="matrix(2.390694,0,0,2.390694,-904.28173,-541.62991)">
		<g id="g4280" transform="matrix(1.25,0,0,-1.25,503.26938,335.77282)">
			<path id="path4282_2_" inkscape:connector-curvature="0" class="st0" d="M33-111.4h7l-0.3,8.4L33-111.4z"/>
		</g>
		<g id="g4284" transform="matrix(1.25,0,0,-1.25,515.81814,321.64531)">
			<path id="path4286" inkscape:connector-curvature="0" class="st0" d="M63.1-77.5c-18.8-18.3-46.8-6.6-44,15.8
				c2.2,17.3,23.4,34.5,39.4,43.9l0,0.2c-2.1,2-6.5,6.5-9.3,9.9C41.5,1.6,27.9,2,19.8-8.3l-46.1-4.3v-0.3l49.5-2.9
				c8.8-0.5,11.6-8.5,3.2-14.9c-31.4-23.8-37-49-30-69l-0.2-0.1c-2.9,4.1-5,9.1-6.2,14.3c-15.1,9.5-27.3,27.5-27.3,49.8
				c0,32.4,26.4,59.1,59.1,59.1S80.6-3.1,80.6-35.5C80.6-53,73-67.9,63.1-77.5 M74.6-133H46.2l10.1,26.2h12.5l-8-20.7h15.9
				C76.8-127.4,74.6-133,74.6-133z M30.3-133l-0.2,5.2H18.9l-4.2-5.2H4.4l21,24.3c1,1.2,2.5,1.9,3.8,1.9h11.2l2.5-26.2
				C42.9-133,30.3-133,30.3-133z M-12.5-133.8c-3.4,0-6.3,0.3-8.7,0.9l2.1,5.6c5.7-0.7,10.6-0.2,12.5,4.8l6.1,15.8h12.5l-6.7-17.4
				C2-133.1-6.5-133.8-12.5-133.8 M113-74c0.6,5.8,0.4,14.1-0.5,20.3h-0.2c-1.9-8.9-7.7-21-20.2-30.9l-0.1,0.2
				c11,11.7,17.5,26.1,18.5,41c-2.1,8.2-5.3,16.1-9.3,23.1l-0.1-0.1c2.2-15-1.3-34.8-15.9-50.9l-0.2,0.1
				c12.5,18.1,15.8,40,10.3,59.8C78.7,11.2,51.8,25.8,21.6,25.8c-30.3,0-57.1-14.7-73.8-37.3c-5.5-19.8-2.2-41.7,10.3-59.8l-0.2-0.1
				C-56.6-55.3-60.2-35.5-58-20.5l-0.1,0.1c-4-7-7.2-14.9-9.3-23.1c1-14.9,7.5-29.3,18.5-41l-0.1-0.2c-12.5,9.9-18.3,22-20.2,30.9
				h-0.2c-0.9-6.2-1.1-14.5-0.5-20.3c3.1-9.9,9.9-18.2,16.8-24.1l-0.1-0.2c-7.7,4.8-12,9.5-15,13.6l-0.1-0.1
				c8.5-41.2,45.4-72.9,89.8-72.9c44.4,0,81.3,31.7,89.8,72.9l-0.1,0.1c-2.9-4.1-7.3-8.8-15-13.6l-0.1,0.2
				C103.1-92.2,109.8-83.9,113-74"/>
		</g>
	</g>
</g>
</svg>
